<svg xmlns="http://www.w3.org/2000/svg" width="46.942" height="59.791" viewBox="0 0 46.942 59.791">
  <path id="icons8-android-os" d="M18.239.04a1.074,1.074,0,0,0-.44.149,1.232,1.232,0,0,0-.293,1.681l2.53,3.848a15.12,15.12,0,0,0-7.775,9.826H44.68a15.12,15.12,0,0,0-7.775-9.826L39.436,1.87A1.232,1.232,0,0,0,39.143.189a1.189,1.189,0,0,0-1.65.336L34.705,4.71a17.9,17.9,0,0,0-12.469,0L19.449.525A1.168,1.168,0,0,0,18.239.04Zm3.777,9.527a1.794,1.794,0,1,1-1.76,1.793A1.778,1.778,0,0,1,22.016,9.567Zm12.909,0a1.794,1.794,0,1,1-1.76,1.793A1.775,1.775,0,0,1,34.925,9.567Zm-26.4,8.369A3.555,3.555,0,0,0,5,21.522V38.26a3.555,3.555,0,0,0,3.521,3.587,3.385,3.385,0,0,0,1.174-.224V18.16A3.385,3.385,0,0,0,8.521,17.936Zm3.521,0v26.3a3.561,3.561,0,0,0,3.521,3.587H41.38A3.561,3.561,0,0,0,44.9,44.238v-26.3Zm36.38,0a3.385,3.385,0,0,0-1.174.224V41.622a3.5,3.5,0,0,0,1.174.224,3.555,3.555,0,0,0,3.521-3.587V21.522A3.555,3.555,0,0,0,48.421,17.936ZM16.735,50.216V55a4.695,4.695,0,1,0,9.388,0V50.216Zm14.083,0V55a4.695,4.695,0,1,0,9.388,0V50.216Z" transform="translate(-5 0.011)" fill="#5D86F8" />
</svg>
