<svg id="logo" xmlns="http://www.w3.org/2000/svg" width="97.402" height="100" viewBox="0 0 97.402 100">
  <path id="Path_2" data-name="Path 2" d="M56.282,131.931l-8.117-8.372L72.515,98.569,64.4,90.24,40.048,115.229l-8.117-8.33L56.282,81.91,31.931,56.92l24.35-24.989,16.234,16.66L64.4,56.92l-8.117-8.33-8.117,8.33,56.818,58.309,8.117-8.33-8.117-8.33,8.117-8.33,16.234,16.66-24.351,24.989L80.632,106.9,56.282,131.931" transform="translate(-31.931 -31.931)"/>
  <path id="Path_3" data-name="Path 3" d="M654.172,249.044l-8.117-8.33,32.467-33.319,8.117,8.33-32.467,33.319" transform="translate(-589.237 -190.735)"/>
  <path id="Path_4" data-name="Path 4" d="M511.175,40.261l-8.117-8.33L470.59,65.25l8.117,8.33,32.467-33.319" transform="translate(-430.006 -31.931)"/>
</svg>
